<svg width="24" height="24" viewBox="0 0 24 24" fill="none" xmlns="http://www.w3.org/2000/svg" class="MuiSvgIcon-root MuiSvgIcon-fontSizeMedium mui-style-b1gb00" focusable="false" aria-hidden="true">
  <path d="M21.7425 11.9983H19.3517C18.6377 11.9983 18.0591 12.5769 18.0591 13.2909V16.761C18.0591 17.4751 17.4805 18.0537 16.7665 18.0537H7.25504C6.54099 18.0537 5.9624 18.6322 5.9624 19.3463V21.7371C5.9624 22.4511 6.54099 23.0297 7.25504 23.0297H17.317C18.031 23.0297 18.6014 22.4511 18.6014 21.7371V19.8189C18.6014 19.1049 19.18 18.5984 19.894 18.5984H21.742C22.4561 18.5984 23.0347 18.0198 23.0347 17.3057V13.2759C23.0347 12.5619 22.4561 11.9983 21.742 11.9983H21.7425Z" fill="currentColor"/>
  <path d="M5.96191 7.24869C5.96191 6.53464 6.5405 5.95605 7.25455 5.95605H16.7602C17.4742 5.95605 18.0528 5.37746 18.0528 4.66341V2.27262C18.0528 1.55857 17.4742 0.97998 16.7602 0.97998H6.70353C5.98948 0.97998 5.41089 1.55857 5.41089 2.27262V4.11482C5.41089 4.82886 4.8323 5.40745 4.11826 5.40745H2.27848C1.56443 5.40745 0.98584 5.98604 0.98584 6.70009V10.7343C0.98584 11.4483 1.56685 11.9979 2.2809 11.9979H4.67169C5.38574 11.9979 5.96433 11.4193 5.96433 10.7052L5.96191 7.24917V7.24869Z" fill="currentColor"/>
  <path d="M10.8851 9.48511H13.1815C13.9299 9.48511 14.5371 10.0927 14.5371 10.8406V13.1371C14.5371 13.8855 13.9294 14.4926 13.1815 14.4926H10.8851C10.1367 14.4926 9.52954 13.885 9.52954 13.1371V10.8406C9.52954 10.0922 10.1372 9.48511 10.8851 9.48511Z" fill="currentColor"/>
</svg>
